{"title":"Avengers XXX - A Porn Parody (2012) WEB-DLRip [Rus/Eng]","uid":11844769,"size":848446562,"categoryP":"porn","categoryS":"movies","magnet":"?xt=urn:btih:803e5805abb3e37870d4c42af190ee26b0a99de0&amp;dn=Avengers+XXX+-+A+Porn+Parody+%282012%29+WEB-DLRip+%5BRus%2FEng%5D&amp;tr=udp%3A%2F%2Ftracker.openbittorrent.com%3A80&amp;tr=udp%3A%2F%2Fopen.demonii.com%3A1337&amp;tr=udp%3A%2F%2Ftracker.coppersurfer.tk%3A6969&amp;tr=udp%3A%2F%2Fexodus.desync.com%3A6969","seeders":1,"leechers":0,"uploader":"nbdjod","files":1,"time":1429916657,"description":"Avengers XXX - A Porn Parody (2012) WEB-DLRip [Rus/Eng]\n\nAudio language - Russian, English\n\nAfter the extraordinary success of Spider-Man XXX, award-winning director Axel Braun and world leader Vivid Entertainment join forces once again for a new high-budget, sexy, superhero-themed spoof. Featuring the most complete Avengers line-up ever brought to the screen, and all the painstaking attention to detail that fans have come to expect from Braun's work, The Avengers XXX is another delightfully entertaining labor of love that will please even the most hardcore comic book fans ... in more ways than one.\n\nMI:\nGeneral\nFormat                                   : AVI\nFormat/Info                              : Audio Video Interleave\nFile size                                : 809 MiB\nDuration                                 : 1h 45mn\nOverall bit rate                         : 1 077 Kbps\n\nVideo\nID                                       : 0\nFormat                                   : MPEG-4 Visual\nFormat profile                           : Advanced Simple@L5\nFormat settings, BVOP                    : 1\nFormat settings, QPel                    : No\nFormat settings, GMC                     : No warppoints\nFormat settings, Matrix                  : Default (H.263)\nMuxing mode                              : Packed bitstream\nCodec ID                                 : XVID\nCodec ID/Hint                            : XviD\nDuration                                 : 1h 45mn\nBit rate                                 : 814 Kbps\nWidth                                    : 720 pixels\nHeight                                   : 400 pixels\nDisplay aspect ratio                     : 16:9\nFrame rate                               : 23.976 fps\nColor space                              : YUV\nChroma subsampling                       : 4:2:0\nBit depth                                : 8 bits\nScan type                                : Progressive\nCompression mode                         : Lossy\nBits/(Pixel*Frame)                       : 0.118\nStream size                              : 612 MiB (76%)\nWriting library                          : XviD 1.2.1 (UTC 2008-12-04)\n\nAudio #1\nID                                       : 1\nFormat                                   : MPEG Audio\nFormat version                           : Version 1\nFormat profile                           : Layer 3\nMode                                     : Joint stereo\nMode extension                           : MS Stereo\nCodec ID                                 : 55\nCodec ID/Hint                            : MP3\nDuration                                 : 1h 45mn\nBit rate mode                            : Constant\nBit rate                                 : 128 Kbps\nChannel(s)                               : 2 channels\nSampling rate                            : 48.0 KHz\nCompression mode                         : Lossy\nStream size                              : 96.2 MiB (12%)\nAlignment                                : Aligned on interleaves\nInterleave, duration                     : 167 ms (4.00 video frames)\nInterleave, preload duration             : 216 ms\nTitle                                    : Avengers XXX A Porn Parody. - [0] Russian\nWriting library                          : LAME3.99r\nEncoding settings                        : -m j -V 4 -q 2 -lowpass 17 -b 128\n\nAudio #2\nID                                       : 2\nFormat                                   : MPEG Audio\nFormat version                           : Version 1\nFormat profile                           : Layer 3\nMode                                     : Joint stereo\nMode extension                           : MS Stereo\nCodec ID                                 : 55\nCodec ID/Hint                            : MP3\nDuration                                 : 1h 45mn\nBit rate mode                            : Constant\nBit rate                                 : 128 Kbps\nChannel(s)                               : 2 channels\nSampling rate                            : 48.0 KHz\nCompression mode                         : Lossy\nStream size                              : 96.2 MiB (12%)\nAlignment                                : Aligned on interleaves\nInterleave, duration                     : 167 ms (4.00 video frames)\nInterleave, preload duration             : 216 ms\nTitle                                    : Avengers XXX A Porn Parody. - [1] English\nWriting library                          : LAME3.99r\nEncoding settings                        : -m j -V 4 -q 2 -lowpass 17 -b 128\n\n\n\nsample: &lt;a href=&quot;\nhttp://rusfolder.com/43532453&quot; rel=&quot;nofollow&quot; target=&quot;_NEW&quot;&gt;\nhttp://rusfolder.com/43532453&lt;/a&gt;\n\nFull size screens: &lt;a href=&quot;\nhttp://i2.imageban.ru/out/2015/04/24/afda02bfb1a9c4243923cf9107c1e5af.png&quot; rel=&quot;nofollow&quot; target=&quot;_NEW&quot;&gt;\nhttp://i2.imageban.ru/out/2015/04/24/afda02bfb1a9c4243923cf9107c1e5af.png&lt;/a&gt; &lt;a href=&quot;\nhttp://i1.imageban.ru/out/2015/04/24/fb7bf7ec7d89260cd99c19b2f9b1185c.png&quot; rel=&quot;nofollow&quot; target=&quot;_NEW&quot;&gt;\nhttp://i1.imageban.ru/out/2015/04/24/fb7bf7ec7d89260cd99c19b2f9b1185c.png&lt;/a&gt; &lt;a href=&quot;\nhttp://i4.imageban.ru/out/2015/04/24/3fdcfffb19fb6e85e4b11371f84cca34.png&quot; rel=&quot;nofollow&quot; target=&quot;_NEW&quot;&gt;\nhttp://i4.imageban.ru/out/2015/04/24/3fdcfffb19fb6e85e4b11371f84cca34.png&lt;/a&gt; &lt;a href=&quot;\nhttp://i4.imageban.ru/out/2015/04/24/2913a52a5dfc88871ac46c5322718645.png&quot; rel=&quot;nofollow&quot; target=&quot;_NEW&quot;&gt;\nhttp://i4.imageban.ru/out/2015/04/24/2913a52a5dfc88871ac46c5322718645.png&lt;/a&gt; &lt;a href=&quot;\nhttp://i1.imageban.ru/out/2015/04/24/5b9917317709fe3f8e6cad24ab32e37a.png&quot; rel=&quot;nofollow&quot; target=&quot;_NEW&quot;&gt;\nhttp://i1.imageban.ru/out/2015/04/24/5b9917317709fe3f8e6cad24ab32e37a.png&lt;/a&gt; &lt;a href=&quot;\nhttp://i5.imageban.ru/out/2015/04/24/33908fd3a6f6ef95999bf3c94a9fe65c.png&quot; rel=&quot;nofollow&quot; target=&quot;_NEW&quot;&gt;\nhttp://i5.imageban.ru/out/2015/04/24/33908fd3a6f6ef95999bf3c94a9fe65c.png&lt;/a&gt; &lt;a href=&quot;\nhttp://i1.imageban.ru/out/2015/04/24/f7b7debb788e95a84ea5246aa8dc61f9.png&quot; rel=&quot;nofollow&quot; target=&quot;_NEW&quot;&gt;\nhttp://i1.imageban.ru/out/2015/04/24/f7b7debb788e95a84ea5246aa8dc61f9.png&lt;/a&gt; &lt;a href=&quot;\nhttp://i1.imageban.ru/out/2015/04/24/c3e6e776fac3cc0f48816f7e6bc3145d.png&quot; rel=&quot;nofollow&quot; target=&quot;_NEW&quot;&gt;\nhttp://i1.imageban.ru/out/2015/04/24/c3e6e776fac3cc0f48816f7e6bc3145d.png&lt;/a&gt;\n\nScreenlist: &lt;a href=&quot;\nhttp://i4.imageban.ru/out/2015/04/24/764f3a735eed2032c3e11cc7f353f391.jpg&quot; rel=&quot;nofollow&quot; target=&quot;_NEW&quot;&gt;\nhttp://i4.imageban.ru/out/2015/04/24/764f3a735eed2032c3e11cc7f353f391.jpg&lt;/a&gt;","torrent":{"xt":"urn:btih:803e5805abb3e37870d4c42af190ee26b0a99de0","amp;dn":"Avengers+XXX+-+A+Porn+Parody+%282012%29+WEB-DLRip+%5BRus%2FEng%5D","amp;tr":["udp%3A%2F%2Ftracker.openbittorrent.com%3A80","udp%3A%2F%2Fopen.demonii.com%3A1337","udp%3A%2F%2Ftracker.coppersurfer.tk%3A6969","udp%3A%2F%2Fexodus.desync.com%3A6969"],"infoHash":"803e5805abb3e37870d4c42af190ee26b0a99de0","infoHashBuffer":{"type":"Buffer","data":[128,62,88,5,171,179,227,120,112,212,196,42,241,144,238,38,176,169,157,224]},"announce":[],"urlList":[]}}